<svg xmlns="http://www.w3.org/2000/svg" viewBox="0 0 604.08 292.9">
    <path d="M292.9 86.15V34.46A34.57 34.57 0 0 0 258.44 0h-224A34.57 34.57 0 0 0 0 34.46v224a34.57 34.57 0 0 0 34.46 34.44h224a34.57 34.57 0 0 0 34.46-34.46v-51.69c29.29-3.44 51.69-29.29 51.69-60.3s-22.42-56.86-51.71-60.3zm-8.61 86.14h-25.85v86.15h-224v-224h224v86.15h25.85c13.78 0 25.84 12.06 25.84 25.84s-12.06 25.86-25.84 25.86z" fill="#9aa5e2"/>
    <path d="M552.39 86.15V34.46A34.57 34.57 0 0 0 517.93 0H294a34.57 34.57 0 0 0-34.46 34.46v65.47h5.17a46.52 46.52 0 0 1 0 93h-5.17v65.47A34.57 34.57 0 0 0 294 292.9h224a34.57 34.57 0 0 0 34.46-34.46v-51.69c29.29-3.44 51.69-29.29 51.69-60.3s-22.47-56.86-51.76-60.3z" fill="#9aa5e2"/>
</svg>
