<svg xmlns="http://www.w3.org/2000/svg" viewBox="0 0 523.79 304.78">
    <path d="M487.5 145.13h-21.77v-58a29 29 0 0 0-29-29h-58.08V36.28a36.28 36.28 0 1 0-72.56 0v21.77H248a29 29 0 0 0-29 29v55.15h21.77a39.19 39.19 0 0 1 0 78.37H219v55.15a29 29 0 0 0 29 29h55.15V283a39.19 39.19 0 0 1 78.38 0v21.8h55.15a29 29 0 0 0 29-29v-58.1h21.82a36.29 36.29 0 1 0 0-72.57z" fill="#9aa5e2"/>
    <path d="M290.27 181.42a50.65 50.65 0 0 1-43.54 50.79v43.54a29 29 0 0 1-29 29h-55.18v-4.35a39.18 39.18 0 0 0-39.19-39.19 39.18 39.18 0 0 0-39.18 39.19v4.35H29a29 29 0 0 1-29-29V220.6h4.35a39.19 39.19 0 1 0 0-78.37H0V87.08a29 29 0 0 1 29-29h43.57a50.8 50.8 0 0 1 101.59 0h43.54a29 29 0 0 1 29 29v43.54a50.66 50.66 0 0 1 43.54 50.22m-72.54 22.35h21.77a21.77 21.77 0 1 0 0-43.54H217.7V87.08h-72.57V65.31a21.77 21.77 0 0 0-43.54 0v21.77H29v30.77a68.07 68.07 0 0 1 43.54 63.57A68.23 68.23 0 0 1 29 245v30.76h30.79a68.21 68.21 0 0 1 127.14 0h30.77z" fill="#9aa5e2"/>
</svg>
