<svg xmlns="http://www.w3.org/2000/svg" viewBox="0 0 512 512">
    <path d="M177.83 472.58c1.72 13.78 10.88 27.84 25.94 34.86L254.13 452h-78.87zM244.16 39.42A45.05 45.05 0 0 0 199.52 0H45A45.05 45.05 0 0 0 0 45v332a45.05 45.05 0 0 0 45 45h236.55c4.38-5 8-8.13 8.2-14.66.04-1.64-45.38-366.34-45.59-367.92zM133.61 244H61.87V131.05h71v12.17H76.76v36.38h48.94v12.17H76.76v40h56.85zm82.29 0h-14.35v-55.56q-.08-9.08-4.14-13.42t-12.69-4.34a20.72 20.72 0 0 0-12.25 3.72 25.2 25.2 0 0 0-8.22 9.77V244H149.9v-83.95h13.57l.47 10.55a30.57 30.57 0 0 1 25.13-12.1q26.6 0 26.83 30z" fill="#9aa5e2"/>
    <path d="M467 101c19 0 35 16.49 35 36v330a35 35 0 0 1-35 35H264.7l51.24-58.56c9.76-11 14.47-25.31 13.6-41.3v-.7L292 101h175m0-10H280.72l38.84 311.68c.69 12.75-2.8 24.75-11.12 34.15L242.66 512H467a45.05 45.05 0 0 0 45-45V137c0-24.81-20.19-46-45-46z" fill="#9aa5e2"/>
    <path d="M417.47 294.37h-47.38v49.87h-14.9V231.31h70v12.18h-55.1v38.7h47.38zM440.82 238.06a8.55 8.55 0 0 1 2.13-5.89q2.13-2.41 6.32-2.41t6.36 2.41a8.45 8.45 0 0 1 2.18 5.89 8.19 8.19 0 0 1-2.18 5.82q-2.16 2.33-6.36 2.32t-6.27-2.32a8.29 8.29 0 0 1-2.18-5.82zm15.51 106.18H442v-83.92h14.35z" fill="#9aa5e2"/>
</svg>
