<svg xmlns="http://www.w3.org/2000/svg" viewBox="0 0 535.75 507.44">
    <path d="M177.83 472.58c1.72 13.78 10.88 27.84 25.94 34.86L254.13 452h-78.87zM244.16 39.42A45.05 45.05 0 0 0 199.52 0H45A45.05 45.05 0 0 0 0 45v332a45.05 45.05 0 0 0 45 45h236.55c4.38-5 8-8.13 8.2-14.66.04-1.64-45.38-366.34-45.59-367.92zM133.61 244H61.87V131.05h71v12.17H76.76v36.38h48.94v12.17H76.76v40h56.85zm82.29 0h-14.35v-55.56q-.08-9.08-4.14-13.42t-12.69-4.34a20.72 20.72 0 0 0-12.25 3.72 25.2 25.2 0 0 0-8.22 9.77V244H149.9v-83.95h13.57l.47 10.55a30.57 30.57 0 0 1 25.13-12.1q26.6 0 26.83 30z" fill="#9aa5e2"/>
    <path d="M485.32 110.44c14.08 0 26.43 10.28 26.43 22v330c0 11.38-12.1 21-26.43 21H291.07l33.65-34.32c13.67-13.81 20.54-32.44 19.33-52.45l-.06-.94-.13-.93-39.71-284.36h181.17m0-24H276.56l43.53 311.68c.77 12.74-3.13 24.75-12.46 34.14l-73.71 75.18h251.4c27.81 0 50.43-20.19 50.43-45v-330c0-24.82-22.62-46-50.43-46z" fill="#9aa5e2"/>
    <path d="M434.82 290.58h-53.11v49.87H365V227.53h78.4v12.17h-61.69v38.7h53.11zM461 234.27a8 8 0 0 1 2.39-5.89c1.6-1.6 4-2.41 7.09-2.41s5.5.81 7.12 2.41a7.94 7.94 0 0 1 2.44 5.89 7.69 7.69 0 0 1-2.44 5.82q-2.43 2.32-7.12 2.33t-7.09-2.33a7.8 7.8 0 0 1-2.39-5.82zm17.39 106.18h-16.1v-83.92h16.08z" fill="#9aa5e2"/>
</svg>
