<svg xmlns="http://www.w3.org/2000/svg" viewBox="0 0 698.62 620.9">
    <path d="M94.87 315.87A95 95 0 0 0 0 410.75c0 50.62 87.45 197.72 91.17 204l3.7 6.2 3.71-6.2c3.72-6.26 91.14-153.33 91.14-204a95 95 0 0 0-94.85-94.88zm0 140.5a42.45 42.45 0 1 1 42.42-42.47 42.52 42.52 0 0 1-42.42 42.47zM479.75 156.73l3.71-6.2c1.85-3.09 45.21-76.07 45.21-101.61a48.92 48.92 0 1 0-97.84 0c0 25.54 43.36 98.52 45.21 101.61zM456.63 50.46a23.11 23.11 0 1 1 23.12 23.12 23.13 23.13 0 0 1-23.12-23.12zM616.94 453.45H342.55a73.06 73.06 0 0 1 0-146.12h274.39a81.67 81.67 0 1 0 0-163.34h-98.52v8.62h98.52a73.05 73.05 0 1 1 0 146.1H342.55a81.69 81.69 0 0 0 0 163.37h274.39a73.05 73.05 0 1 1 0 146.1H142.67v8.63h474.27a81.68 81.68 0 1 0 0-163.36z" fill="#9aa5e2"/>
</svg>