<svg xmlns="http://www.w3.org/2000/svg" viewBox="0 0 522 522">
  <path d="M368.36 79.32C412.4 79.32 409.65 5 469.47 5c36.53 0 59.19 35.78 41.29 74.32-13.91 30-33 66.07-24.77 90.84zm-214.71 0C109.6 79.32 112.36 5 52.53 5 16.06 5-6.65 40.78 11.24 79.32c13.91 30 33 66.07 24.77 90.84z" fill="#002ea2" stroke="#fff" stroke-miterlimit="10" stroke-width="10"/>
  <path d="M261 46.29c-141.39 0-256 74.32-256 256C5 442.68 119.61 517 261 517s256-74.32 256-214.71c0-181.68-114.61-256-256-256z" fill="#001a8f" stroke="#fff" stroke-miterlimit="10" stroke-width="10"/>
  <path d="M261 87.58c-91.22 0-198.19 58.68-198.19 202.11 0 110.83 88.73 169.5 198.19 169.5s198.2-58.67 198.2-169.5C459.19 146.26 352.22 87.58 261 87.58z" fill="#fff"/>
  <path d="M225.25 277.52c-5-16.74-15.82-49.55-47.46-49.55-23.72 0-92.52 50.32-110.73 107.35-15.82 49.55 78.33 132.13 166.1 132.13 42.66 0 5.55-144.53-7.91-189.93zm71.83 0C302 260.78 312.9 228 344.54 228c23.73 0 92.52 50.32 110.73 107.35 15.82 49.55-78.32 132.13-166.1 132.13-42.65-.03-5.54-144.56 7.91-189.96z" fill="#1238ae" stroke="#fff" stroke-miterlimit="10"/>
  <path d="M194.94 426.16c0 26.61 43.26 49.55 66.06 49.55s66.07-22.94 66.07-49.55z" fill="#fff"/>
  <path d="M278.81 261h-35.62A24.72 24.72 0 0 0 221 274.83c-16.55 33.7-47.42 120.17-34.28 159.59 7.38 22.16 57.8 0 74.32 0s66.94 22.16 74.32 0C348.46 395 317.59 308.53 301 274.83A24.72 24.72 0 0 0 278.81 261z" fill="#274ac4" stroke="#fff" stroke-miterlimit="10"/>
  <circle cx="178.42" cy="261" r="16.52" fill="#fff"/>
  <circle cx="343.58" cy="261" r="16.52" fill="#fff"/>
  <ellipse cx="261" cy="376.61" rx="41.29" ry="33.03" fill="#fff"/>
</svg>  