<svg xmlns="http://www.w3.org/2000/svg" viewBox="0 0 567.58 589.69">
    <path d="M213.76 0a14.89 14.89 0 0 1 13 7.67l65.45 116.75 2.66 8.26-2.66 8.26-65.47 116.75a14.89 14.89 0 0 1-13 7.67H81.08a14.87 14.87 0 0 1-13-7.67L2.65 140.94 0 132.68l2.65-8.26L68.11 7.67A14.87 14.87 0 0 1 81.08 0h132.68m0 324.33a14.89 14.89 0 0 1 13 7.67l65.45 116.75 2.66 8.26-2.66 8.26L226.74 582a14.89 14.89 0 0 1-13 7.67H81.08a14.87 14.87 0 0 1-13-7.67L2.65 465.27 0 457l2.65-8.26L68.11 332a14.87 14.87 0 0 1 13-7.67h132.65m272.73-162.17a14.9 14.9 0 0 1 13 7.67l65.45 116.76 2.66 8.26-2.66 8.25-65.47 116.76a14.9 14.9 0 0 1-13 7.67H353.81a14.89 14.89 0 0 1-13-7.67L275.39 303.1l-2.66-8.25 2.66-8.26 65.45-116.76a14.89 14.89 0 0 1 13-7.67z"/>
</svg>
