<svg xmlns="http://www.w3.org/2000/svg" viewBox="0 0 206.32 199.29">
    <path d="M52 46.78v102.05h102V46.78zM206.32 199.29h-10v-22.41h10zm0-41.37h-10v-25.26h10zm0-44.21h-10V88.44h10zm0-44.22h-10V44.22h10zm0-44.22h-10V0h10z"/>
    <path d="M206.32 199.29h-25.79v-10h25.79zm-45.13 0H135.4v-10h25.79zm-45.13 0H90.27v-10h25.79zm-45.14 0H45.13v-10h25.79zm-45.13 0H0v-10h25.79z"/>
    <path d="M10 199.29H0v-22.41h10zm0-41.37H0v-25.26h10zm0-44.21H0V88.44h10zm0-44.22H0V44.22h10zm0-44.22H0V0h10z"/>
    <path d="M206.32 10h-25.79V0h25.79zm-45.13 0H135.4V0h25.79zm-45.13 0H90.27V0h25.79zm-45.14 0H45.13V0h25.79zm-45.13 0H0V0h25.79z"/>
</svg>