<svg xmlns="http://www.w3.org/2000/svg" viewBox="0 0 603.08 292.9">
    <path d="M551.39 86.15V34.46A34.57 34.57 0 0 0 516.93 0H293a34.57 34.57 0 0 0-34.46 34.46v65.47h5.17a46.52 46.52 0 0 1 0 93h-5.17v65.47A34.57 34.57 0 0 0 293 292.9h224a34.57 34.57 0 0 0 34.46-34.46v-51.69c29.29-3.44 51.69-29.29 51.69-60.3s-22.47-56.86-51.76-60.3zm-8.62 86.14h-25.84v86.15H293v-36.18c31-12.06 51.69-43.07 51.69-75.81A80.55 80.55 0 0 0 293 70.64V34.46h224v86.15h25.84c13.79 0 25.85 12.06 25.85 25.84s-12.13 25.84-25.92 25.84z" fill="#9aa5e2"/>
    <path d="M292.9 86.15V34.46A34.57 34.57 0 0 0 258.44 0h-224A34.57 34.57 0 0 0 0 34.46v224a34.57 34.57 0 0 0 34.46 34.44h224a34.57 34.57 0 0 0 34.46-34.46v-51.69c29.29-3.44 51.69-29.29 51.69-60.3s-22.42-56.86-51.71-60.3z" fill="#9aa5e2"/>
</svg>